<svg width="100" height="100" viewBox="0 0 100 100" fill="none" xmlns="http://www.w3.org/2000/svg">
<rect x="0.5" y="0.5" width="99" height="99" rx="14.5" fill="white"/>
<rect x="0.5" y="0.5" width="99" height="99" rx="14.5" stroke="#9F0600"/>
<path d="M10 21.6667C10 18.5323 12.5217 16 15.6429 16H83.3571C86.4783 16 89 18.5323 89 21.6667C89 24.801 86.4783 27.3333 83.3571 27.3333H15.6429C12.5217 27.3333 10 24.801 10 21.6667ZM10 50C10 46.8656 12.5217 44.3333 15.6429 44.3333H83.3571C86.4783 44.3333 89 46.8656 89 50C89 53.1344 86.4783 55.6667 83.3571 55.6667H15.6429C12.5217 55.6667 10 53.1344 10 50ZM89 78.3333C89 81.4677 86.4783 84 83.3571 84H15.6429C12.5217 84 10 81.4677 10 78.3333C10 75.199 12.5217 72.6667 15.6429 72.6667H83.3571C86.4783 72.6667 89 75.199 89 78.3333Z" fill="#9F0600"/>
</svg>
