<svg width="133" height="133" viewBox="0 0 133 133" fill="none" xmlns="http://www.w3.org/2000/svg">
<g clip-path="url(#clip0_24_608)">
<path d="M66.5 12.4688C80.83 12.4688 94.573 18.1613 104.706 28.2941C114.839 38.427 120.531 52.17 120.531 66.5C120.531 80.83 114.839 94.573 104.706 104.706C94.573 114.839 80.83 120.531 66.5 120.531C52.17 120.531 38.427 114.839 28.2941 104.706C18.1613 94.573 12.4688 80.83 12.4688 66.5C12.4688 52.17 18.1613 38.427 28.2941 28.2941C38.427 18.1613 52.17 12.4688 66.5 12.4688ZM66.5 133C84.1369 133 101.051 125.994 113.523 113.523C125.994 101.051 133 84.1369 133 66.5C133 48.8631 125.994 31.9486 113.523 19.4774C101.051 7.00623 84.1369 0 66.5 0C48.8631 0 31.9486 7.00623 19.4774 19.4774C7.00623 31.9486 0 48.8631 0 66.5C0 84.1369 7.00623 101.051 19.4774 113.523C31.9486 125.994 48.8631 133 66.5 133ZM95.8535 54.291C98.2953 51.8492 98.2953 47.9008 95.8535 45.485C93.4117 43.0691 89.4633 43.0432 87.0475 45.485L58.2135 74.3189L46.0045 62.11C43.5627 59.6682 39.6143 59.6682 37.1984 62.11C34.7826 64.5518 34.7566 68.5002 37.1984 70.916L53.8234 87.541C56.2652 89.9828 60.2137 89.9828 62.6295 87.541L95.8535 54.291Z" fill="#2FD913"/>
</g>
<defs>
<clipPath id="clip0_24_608">
<rect width="133" height="133" fill="white"/>
</clipPath>
</defs>
</svg>
