<svg width="20" height="18" viewBox="0 0 20 18" fill="none" xmlns="http://www.w3.org/2000/svg">
<path d="M2.22222 2.22222C0.996528 2.22222 0 3.21875 0 4.44444V13.3333C0 14.559 0.996528 15.5556 2.22222 15.5556H17.7778C19.0035 15.5556 20 14.559 20 13.3333V4.44444C20 3.21875 19.0035 2.22222 17.7778 2.22222H2.22222ZM3.88889 7.77778H9.44444C9.75 7.77778 10 8.02778 10 8.33333C10 8.63889 9.75 8.88889 9.44444 8.88889H3.88889C3.58333 8.88889 3.33333 8.63889 3.33333 8.33333C3.33333 8.02778 3.58333 7.77778 3.88889 7.77778ZM3.33333 11.6667C3.33333 11.3611 3.58333 11.1111 3.88889 11.1111H16.1111C16.4167 11.1111 16.6667 11.3611 16.6667 11.6667C16.6667 11.9722 16.4167 12.2222 16.1111 12.2222H3.88889C3.58333 12.2222 3.33333 11.9722 3.33333 11.6667ZM13.0556 5.55555H15.8333C16.2951 5.55555 16.6667 5.92708 16.6667 6.38889V8.05555C16.6667 8.51736 16.2951 8.88889 15.8333 8.88889H13.0556C12.5938 8.88889 12.2222 8.51736 12.2222 8.05555V6.38889C12.2222 5.92708 12.5938 5.55555 13.0556 5.55555Z" fill="black"/>
</svg>
