<svg width="33" height="33" viewBox="0 0 33 33" fill="none" xmlns="http://www.w3.org/2000/svg">
<path d="M15.4956 0.792783C11.7469 1.15402 8.35942 2.70803 5.67399 5.29122C3.49974 7.38367 1.87076 10.2395 1.18237 13.1635C0.862023 14.5198 0.766602 15.365 0.766602 16.8781C0.766602 19.4886 1.25734 21.6219 2.39558 23.9393C4.7743 28.7921 9.2591 32.0501 14.6981 32.8748C15.775 33.0316 17.9833 33.0316 19.0602 32.8748C20.8732 32.5954 22.3659 32.1387 23.9335 31.3685C28.7455 29.0102 32.0035 24.5732 32.8418 19.2432C33.0395 17.9823 33.0531 15.883 32.8759 14.697C32.5964 12.884 32.1398 11.3914 31.3696 9.82374C28.9909 4.98451 24.4788 1.69247 19.1284 0.895021C18.256 0.76552 16.3135 0.710994 15.4956 0.792783ZM19.4351 4.22795C24.5742 5.31848 28.432 9.18986 29.543 14.3563C29.7134 15.1469 29.7202 15.3241 29.7202 16.8781C29.7202 18.4321 29.7134 18.6093 29.543 19.4C28.432 24.58 24.5811 28.4309 19.401 29.5419C18.6104 29.7123 18.4332 29.7191 16.8792 29.7191C15.3252 29.7191 15.148 29.7123 14.3573 29.5419C9.17731 28.4309 5.32638 24.58 4.2154 19.4C4.04501 18.6093 4.03819 18.4321 4.03819 16.8781C4.03819 15.3241 4.04501 15.1469 4.2154 14.3563C4.79475 11.664 6.08975 9.33981 8.03226 7.49954C9.79074 5.8433 11.9854 4.70506 14.3233 4.23477C15.4683 4.00985 15.4479 4.00985 17.1177 4.03029C18.4196 4.05074 18.7263 4.07119 19.4351 4.22795Z" fill="black"/>
<path d="M15.8572 5.09356C14.4327 5.20943 13.0763 5.59111 11.72 6.24543C6.83985 8.61733 4.20895 13.9473 5.29266 19.2704C5.76295 21.5742 7.07159 23.9188 8.78236 25.5001C14.7189 30.9936 24.1316 29.1875 27.5872 21.8877C30.3544 16.0329 27.8326 9.01265 21.9573 6.20454C20.601 5.55703 19.3196 5.21624 17.786 5.08674C16.9 5.01177 16.7909 5.01177 15.8572 5.09356ZM17.9564 6.18409C19.7694 6.38175 21.3303 6.94746 22.857 7.96301C23.784 8.57644 25.1199 9.89189 25.7197 10.7779C27.928 14.0495 28.2347 18.0232 26.5512 21.5606C25.7333 23.2713 24.1179 25.0503 22.4344 26.0794C21.4189 26.7065 20.1171 27.1972 18.8221 27.4562C17.752 27.6743 16.0003 27.6675 14.9302 27.4562C12.6128 26.9928 10.7385 25.9704 9.1027 24.2596C5.96743 20.988 5.23814 16.1556 7.27606 12.1002C8.39386 9.86463 10.3295 8.01754 12.5515 7.0497C14.3304 6.27269 16.1503 5.98643 17.9564 6.18409Z" fill="black"/>
<path d="M15.9927 7.23372C15.9382 7.24736 15.7473 7.28143 15.5701 7.30188L15.243 7.34278V9.5511C15.243 12.2025 15.2293 12.2842 14.5341 12.959C14.0161 13.4634 13.5867 13.6406 12.8915 13.6338C12.4689 13.627 12.1758 13.5384 10.4446 12.9317C9.3609 12.5569 8.4544 12.2433 8.42714 12.2433C8.35898 12.2433 7.85461 13.3543 7.68421 13.8791C7.53427 14.3562 7.31616 15.2491 7.35024 15.2696C7.36387 15.2832 7.98411 15.4945 8.73385 15.7535C9.48359 16.0057 10.2742 16.3056 10.4855 16.4214C10.9967 16.6873 11.5147 17.2393 11.7873 17.8119C11.9918 18.2481 12.0054 18.3231 12.0054 19.0251C12.0054 19.7203 11.9918 19.8089 11.7941 20.2178C11.651 20.5109 11.2421 21.0698 10.5537 21.8877C9.98114 22.5625 9.51767 23.135 9.51767 23.1623C9.51767 23.1827 9.81075 23.4826 10.172 23.8166C10.8945 24.505 11.9509 25.2616 12.0259 25.1525C12.2235 24.8594 14.6091 22.0922 14.8136 21.9286C15.2021 21.6015 15.8359 21.322 16.388 21.2334C17.2536 21.0903 18.2692 21.3697 18.9439 21.9286C19.1416 22.0922 21.5271 24.8526 21.7316 25.1457C21.827 25.2956 23.0675 24.3755 23.8581 23.5644C24.233 23.1827 24.2603 23.1418 24.158 23.0328C23.2447 21.9627 22.1542 20.6063 22.0519 20.4087C21.8679 20.0475 21.718 19.4272 21.718 19.0251C21.718 18.6161 21.8679 18.0027 22.0519 17.6347C22.2701 17.2121 22.8358 16.6464 23.2652 16.4214C23.4833 16.3124 24.2739 16.0057 25.0236 15.7535C25.7734 15.4945 26.3936 15.2832 26.4073 15.2764C26.4413 15.2491 26.2232 14.3562 26.0733 13.8791C25.9029 13.3543 25.3985 12.2433 25.3304 12.2433C25.3031 12.2433 24.3966 12.5569 23.3129 12.9317C21.5748 13.5452 21.2886 13.627 20.866 13.6338C20.1708 13.6406 19.7414 13.4634 19.2234 12.959C18.5282 12.2842 18.5145 12.2025 18.5145 9.55792V7.34959L18.3305 7.3087C18.1056 7.25417 16.1426 7.19283 15.9927 7.23372ZM18.0034 14.4449C18.5418 14.697 19.0666 15.2219 19.312 15.7467C19.4824 16.1215 19.5028 16.2374 19.5028 16.8781C19.5028 17.512 19.4824 17.6415 19.3188 17.9823C19.0666 18.5275 18.5895 19.0183 18.0443 19.2841C17.6285 19.4886 17.5535 19.5022 16.8787 19.5022C16.2381 19.5022 16.1222 19.4817 15.7541 19.3113C15.2157 19.0592 14.6909 18.5343 14.4455 18.0095C14.2751 17.6347 14.2547 17.5188 14.2547 16.8781C14.2547 16.2442 14.2751 16.1147 14.4319 15.7808C14.7386 15.1264 15.2225 14.6698 15.9177 14.3767C16.2449 14.2404 16.3948 14.2199 16.9469 14.2336C17.4854 14.254 17.6626 14.2881 18.0034 14.4449Z" fill="black"/>
<path d="M16.381 15.3514C16.1629 15.4195 15.9448 15.5558 15.7539 15.7535C14.8747 16.6259 15.2496 18.0709 16.4355 18.4185C17.3352 18.6775 18.2417 18.1254 18.453 17.1916C18.6234 16.4078 18.1395 15.5831 17.3625 15.3514C16.9194 15.2219 16.8104 15.2219 16.381 15.3514Z" fill="black"/>
<path d="M13.5326 7.80625C12.3193 8.26291 11.1198 9.01265 10.1724 9.91915C9.57939 10.4917 9.00686 11.2142 9.08183 11.2891C9.1977 11.3914 12.7283 12.5841 12.9328 12.5841C13.1918 12.5841 13.5939 12.4137 13.7984 12.2229C14.1801 11.8685 14.1869 11.8208 14.2073 9.63289C14.2278 7.98346 14.2141 7.60859 14.1392 7.60859C14.0915 7.61541 13.8188 7.70401 13.5326 7.80625Z" fill="black"/>
<path d="M19.5501 9.63289C19.5706 11.8208 19.5774 11.8685 19.9591 12.2229C20.1636 12.4137 20.5657 12.5841 20.8247 12.5841C21.0292 12.5841 24.5598 11.3914 24.6756 11.2891C24.7642 11.2073 24.1236 10.4303 23.4488 9.79647C22.7808 9.17623 22.0038 8.63778 21.1723 8.22202C20.6475 7.9562 19.741 7.60859 19.5842 7.60859C19.5501 7.60859 19.5365 8.46057 19.5501 9.63289Z" fill="black"/>
<path d="M7.20117 16.994C7.20117 18.1527 7.50107 19.5635 7.97817 20.6677C8.25081 21.3016 8.7211 22.1467 8.81652 22.174C8.91876 22.2081 10.6636 20.1088 10.8204 19.7748C10.9976 19.3931 10.9908 18.6502 10.8067 18.2413C10.65 17.8937 10.4046 17.6142 10.0911 17.4166C9.89342 17.3007 7.40565 16.401 7.26251 16.401C7.22844 16.401 7.20117 16.6668 7.20117 16.994Z" fill="black"/>
<path d="M25.0712 16.8713C24.3487 17.1303 23.6535 17.4234 23.5172 17.5256C23.2377 17.7369 22.9923 18.0981 22.8765 18.4662C22.7674 18.8138 22.8151 19.5022 22.9719 19.8225C23.1014 20.0952 24.8258 22.1944 24.9212 22.1944C24.9962 22.1944 25.4869 21.3356 25.7323 20.7699C26.2367 19.6249 26.482 18.5752 26.5366 17.2666C26.5706 16.5509 26.557 16.401 26.482 16.401C26.4275 16.4078 25.7936 16.6191 25.0712 16.8713Z" fill="black"/>
<path d="M16.3204 22.3239C15.7002 22.5284 15.448 22.7533 14.2075 24.2255C13.5327 25.023 13.0079 25.7046 13.0352 25.7387C13.0693 25.7659 13.3283 25.875 13.6077 25.9772C15.3662 26.6111 17.3905 26.7201 19.1626 26.2771C19.8033 26.1203 20.6825 25.8136 20.7371 25.7318C20.778 25.6569 18.3788 22.8079 18.1607 22.6784C17.7381 22.4125 17.445 22.3171 16.9884 22.2899C16.7226 22.2762 16.4227 22.2899 16.3204 22.3239Z" fill="black"/>
</svg>
