<svg width="42" height="42" viewBox="0 0 42 42" fill="none" xmlns="http://www.w3.org/2000/svg">
<path d="M15.4383 39.1453C18.5719 40.0395 21.8449 38.2266 22.7391 35.093L23.2066 33.4523C23.5102 32.3859 24.0598 31.4016 24.8062 30.5813L29.0145 25.9547C29.7445 25.1508 29.6871 23.9039 28.8832 23.1738C28.0793 22.4438 26.8324 22.5012 26.1023 23.3051L21.8941 27.9316C20.7375 29.2031 19.8926 30.7207 19.425 32.3695L18.9574 34.0102C18.6621 35.052 17.5711 35.659 16.5211 35.3637C15.4711 35.0684 14.8723 33.9773 15.1676 32.9273L15.6352 31.2867C16.1027 29.6543 16.841 28.1121 17.8172 26.734C18.2438 26.1352 18.293 25.3477 17.9566 24.6914C17.6203 24.0352 16.9477 23.625 16.2094 23.625H5.25C4.52813 23.625 3.9375 23.0344 3.9375 22.3125C3.9375 21.7547 4.29023 21.2707 4.79062 21.082C5.39766 20.8523 5.85703 20.3438 6.01289 19.7121C6.16875 19.0805 6.00469 18.416 5.57812 17.932C5.37305 17.7023 5.25 17.3988 5.25 17.0625C5.25 16.4227 5.70937 15.8895 6.31641 15.7746C6.98906 15.6434 7.55508 15.1758 7.79297 14.5277C8.03086 13.8797 7.92422 13.1578 7.49765 12.6164C7.32539 12.3949 7.21875 12.116 7.21875 11.8043C7.21875 11.2547 7.56328 10.7707 8.05547 10.582C8.99883 10.2129 9.50742 9.1957 9.23672 8.21953C9.20391 8.11289 9.1875 7.98985 9.1875 7.8668C9.1875 7.14493 9.77813 6.5543 10.5 6.5543H18.498C19.5316 6.5543 20.5488 6.85782 21.4102 7.43203L26.4715 10.8035C27.3738 11.4105 28.5961 11.1645 29.2031 10.2539C29.8102 9.34336 29.5641 8.1293 28.6535 7.52227L23.5922 4.15078C22.0828 3.1418 20.3109 2.6086 18.498 2.6086H10.5C7.65351 2.6086 5.34023 4.87266 5.25 7.69453C4.05235 8.6543 3.28125 10.1309 3.28125 11.7961C3.28125 12.1652 3.32227 12.518 3.38789 12.8625C2.12461 13.8223 1.3125 15.3398 1.3125 17.0461C1.3125 17.5793 1.39453 18.0961 1.54219 18.5801C0.590626 19.548 0 20.8605 0 22.3125C0 25.2082 2.34609 27.5625 5.25 27.5625H12.8215C12.4359 28.4156 12.1078 29.3016 11.8535 30.2039L11.3859 31.8445C10.4918 34.9781 12.3047 38.2512 15.4383 39.1453ZM39.375 31.5C40.827 31.5 42 30.327 42 28.875V10.5C42 9.04805 40.827 7.875 39.375 7.875H34.125C32.673 7.875 31.5 9.04805 31.5 10.5V28.875C31.5 30.327 32.673 31.5 34.125 31.5H39.375Z" fill="black"/>
</svg>
