<svg width="20" height="20" viewBox="0 0 20 20" fill="none" xmlns="http://www.w3.org/2000/svg">
<path d="M12.2422 1.28515C13.2578 1.48828 13.918 2.47656 13.7148 3.49219L13.625 3.9375C13.418 4.98047 13.0352 5.97265 12.5 6.875H18.125C19.1602 6.875 20 7.71484 20 8.75C20 9.47265 19.5898 10.1016 18.9883 10.4141C19.4141 10.7578 19.6875 11.2852 19.6875 11.875C19.6875 12.7891 19.0312 13.5508 18.168 13.7148C18.3398 14 18.4375 14.332 18.4375 14.6875C18.4375 15.5195 17.8945 16.2266 17.1445 16.4687C17.1719 16.5977 17.1875 16.7344 17.1875 16.875C17.1875 17.9102 16.3477 18.75 15.3125 18.75H11.5039C10.7617 18.75 10.0391 18.5312 9.42188 18.1211L7.91797 17.1172C6.875 16.4219 6.25 15.25 6.25 13.9961V12.5V10.625V9.65234C6.25 8.51172 6.76953 7.4375 7.65625 6.72265L7.94531 6.49219C8.98047 5.66406 9.6875 4.5 9.94531 3.20312L10.0352 2.75781C10.2383 1.74219 11.2266 1.08203 12.2422 1.28515ZM1.25 7.5H3.75C4.44141 7.5 5 8.05859 5 8.75V17.5C5 18.1914 4.44141 18.75 3.75 18.75H1.25C0.558594 18.75 0 18.1914 0 17.5V8.75C0 8.05859 0.558594 7.5 1.25 7.5Z" fill="black"/>
</svg>
