<svg width="20" height="20" viewBox="0 0 20 20" fill="none" xmlns="http://www.w3.org/2000/svg">
<path d="M7.75781 18.7148C6.74219 18.5117 6.08203 17.5234 6.28516 16.5078L6.375 16.0625C6.58203 15.0195 6.96484 14.0273 7.5 13.125H1.875C0.839844 13.125 0 12.2852 0 11.25C0 10.5273 0.410156 9.89844 1.01172 9.58594C0.585938 9.24219 0.3125 8.71484 0.3125 8.125C0.3125 7.21094 0.96875 6.44922 1.83203 6.28516C1.66016 6 1.5625 5.66797 1.5625 5.3125C1.5625 4.48047 2.10547 3.77344 2.85547 3.53125C2.82812 3.40234 2.8125 3.26562 2.8125 3.125C2.8125 2.08984 3.65234 1.25 4.6875 1.25H8.49609C9.23828 1.25 9.96094 1.46875 10.5781 1.87891L12.082 2.88281C13.125 3.57812 13.75 4.75 13.75 6.00391V7.5V9.375V10.3477C13.75 11.4883 13.2305 12.5625 12.3438 13.2773L12.0547 13.5078C11.0195 14.3359 10.3125 15.5 10.0547 16.7969L9.96484 17.2422C9.76172 18.2578 8.77344 18.918 7.75781 18.7148ZM18.75 15H16.25C15.5586 15 15 14.4414 15 13.75V5C15 4.30859 15.5586 3.75 16.25 3.75H18.75C19.4414 3.75 20 4.30859 20 5V13.75C20 14.4414 19.4414 15 18.75 15Z" fill="black"/>
</svg>
