<svg width="269" height="269" viewBox="0 0 269 269" fill="none" xmlns="http://www.w3.org/2000/svg">
<path d="M164.657 17.2854C178.318 20.0174 187.197 33.3098 184.465 46.9699L183.256 52.9594C180.472 66.9873 175.323 80.3322 168.125 92.4688H243.781C257.704 92.4688 269 103.765 269 117.688C269 127.407 263.483 135.866 255.392 140.069C261.119 144.693 264.797 151.785 264.797 159.719C264.797 172.013 255.97 182.258 244.359 184.465C246.671 188.3 247.984 192.766 247.984 197.547C247.984 208.738 240.681 218.247 230.594 221.505C230.962 223.238 231.172 225.077 231.172 226.969C231.172 240.892 219.876 252.188 205.953 252.188H154.728C144.745 252.188 135.025 249.245 126.724 243.729L106.497 230.226C92.4687 220.874 84.0625 205.113 84.0625 188.247V168.125V142.906V129.824C84.0625 114.483 91.0502 100.034 102.977 90.4197L106.864 87.3199C120.787 76.1816 130.297 60.525 133.764 43.082L134.973 37.0926C137.705 23.4324 150.997 14.5533 164.657 17.2854ZM16.8125 100.875H50.4375C59.7369 100.875 67.25 108.388 67.25 117.688V235.375C67.25 244.674 59.7369 252.188 50.4375 252.188H16.8125C7.51309 252.188 0 244.674 0 235.375V117.688C0 108.388 7.51309 100.875 16.8125 100.875Z" fill="#2FD913"/>
</svg>
