<svg width="30" height="30" viewBox="0 0 30 30" fill="none" xmlns="http://www.w3.org/2000/svg">
<path d="M13.7556 0.0357068C11.8054 0.151224 10.0522 0.620087 8.21755 1.52384C5.26167 2.9712 2.96492 5.26795 1.51756 8.21703C0.477903 10.3371 0.0226302 12.3009 0.0226302 14.6384C0.015835 16.4595 0.212894 17.7166 0.756503 19.3542C2.54362 24.736 7.30021 28.616 12.9741 29.3159C13.7624 29.411 15.6514 29.411 16.4396 29.3159C17.4453 29.1936 18.3559 28.9897 19.3276 28.6636C24.7433 26.8696 28.6165 22.1334 29.3164 16.4391C29.4115 15.6509 29.4115 13.7619 29.3164 12.9736C28.9766 10.2216 27.8419 7.55111 26.1091 5.41065C25.1578 4.23509 23.7648 3.01197 22.4737 2.21015C20.4963 0.987024 18.0501 0.178404 15.9368 0.0628873C15.5767 0.0425019 15.135 0.0153215 14.9447 0.00173121C14.7612 -0.00506391 14.2244 0.00852634 13.7556 0.0357068ZM15.8689 3.02556C20.4895 3.49442 24.3763 6.61339 25.8509 11.0234C26.1159 11.8117 26.4692 13.5648 26.3809 13.6531C26.3265 13.7143 25.083 13.5716 24.2065 13.4085C22.5485 13.1027 21.5768 12.6339 20.2381 11.4787C19.4974 10.84 19.0422 10.5206 18.3898 10.1944C16.4668 9.22951 14.1769 9.08001 12.0704 9.77991C10.9152 10.1672 10.1881 10.5953 9.10091 11.5466C7.57201 12.8717 6.20619 13.3881 3.48135 13.6531C2.93094 13.7075 2.95133 13.7686 3.15518 12.5931C4.22881 6.62698 9.83479 2.4072 15.8689 3.02556ZM15.4408 11.7505C16.0659 11.9 16.5212 12.1582 16.9968 12.6339C18.8791 14.5161 17.8191 17.7166 15.1825 18.1243C13.443 18.3893 11.7646 17.1526 11.4996 15.3995C11.2482 13.7822 12.2946 12.1854 13.8847 11.7709C14.4419 11.6282 14.8904 11.6214 15.4408 11.7505ZM6.70903 14.1628C6.91968 14.3326 6.98763 14.5909 6.87891 14.8015C6.83134 14.8898 6.31491 15.3791 5.73733 15.8887C4.84037 16.6838 4.6569 16.8129 4.45984 16.8129C4.01137 16.8129 3.73277 16.2693 4.02496 15.9431C4.17445 15.7732 5.85284 14.2987 6.07708 14.1424C6.29453 13.9929 6.49838 13.9929 6.70903 14.1628ZM9.61734 14.2239C9.85517 14.4618 9.86876 14.7064 9.66491 14.9374C9.57657 15.0325 9.06694 15.4878 8.53012 15.9567C7.69432 16.6906 7.52444 16.8129 7.32739 16.8129C6.93327 16.8129 6.64108 16.3644 6.82455 16.045C6.86532 15.9635 7.27302 15.5762 7.71471 15.182C9.17566 13.8978 9.2504 13.857 9.61734 14.2239ZM22.4601 14.2239C22.7115 14.4753 22.7115 14.7132 22.4737 14.9714C22.365 15.0801 21.8554 15.5422 21.3389 15.9907C20.5371 16.6906 20.3604 16.8129 20.1702 16.8129C19.7896 16.8129 19.4974 16.3848 19.6605 16.079C19.7285 15.9567 21.0467 14.7404 21.6923 14.2103C21.9845 13.9725 22.2087 13.9793 22.4601 14.2239ZM25.3345 14.2035C25.5043 14.3802 25.5519 14.5841 25.4704 14.8083C25.4432 14.8695 24.9403 15.3451 24.3492 15.8615C23.4114 16.6906 23.2416 16.8129 23.0377 16.8129C22.861 16.8129 22.7591 16.7653 22.63 16.6022C22.4397 16.378 22.4126 16.2625 22.5213 16.0654C22.5756 15.9635 23.5473 15.0733 24.5122 14.2443C24.8316 13.9725 25.083 13.9589 25.3345 14.2035ZM9.14168 17.7914C10.0522 17.9884 10.5551 18.3757 10.9084 19.1572C11.4316 20.3124 11.452 22.3441 10.956 23.8798C10.7929 24.3826 10.4396 25.1233 10.2425 25.3679L10.1066 25.531L9.46785 25.2116C7.29341 24.1176 5.48591 22.3577 4.33074 20.2104C3.93662 19.4833 3.59007 18.5932 3.67161 18.5184C3.84149 18.3486 5.4995 17.9341 6.7566 17.7438C7.20507 17.6758 8.73398 17.7098 9.14168 17.7914ZM23.6357 17.8933C24.3695 18.0428 25.647 18.4165 25.7422 18.5116C25.8237 18.5932 25.647 19.0553 25.1918 19.9726C24.057 22.2354 22.2291 24.0633 19.9459 25.2116L19.3072 25.531L19.1713 25.3679C18.981 25.1301 18.6209 24.3894 18.451 23.8798C18.1044 22.813 17.9957 21.1346 18.2132 20.0949C18.4918 18.7291 19.0897 18.0564 20.2381 17.7914C20.8429 17.6555 22.7455 17.7098 23.6357 17.8933Z" fill="black"/>
</svg>
